<?xml version="1.0" encoding="UTF-8" standalone="no"?>
<!-- Created with Inkscape (http://www.inkscape.org/) -->

<svg
  xmlns:svg="http://www.w3.org/2000/svg"
  xmlns="http://www.w3.org/2000/svg"
  version="1.1"
  width="550.53314"
  height="943.48248"
  id="svg2">
 <title
   id="title3599">National_Trails_Icon</title>
 <defs
   id="defs4" />
 <g
   transform="translate(-95.90358,-59.382229)"
   id="layer1"
   style="display:inline">
  <path
    d="m 552,673.79118 c 14.63828,2e-5 25.99492,13.49258 25.99492,29.371 0,30.03432 -10.6198,53.03355 -32.83548,78.35944 -21.40864,24.40587 -46.7794,43.781 -76.65944,59.05484 -30.89757,15.79397 -66.23115,22.973 -77.56499,29.5166 -46.50342,23.09935 -108.79163,57.42858 -147.1528,80.4799 -2.88652,1.73452 -6.19307,1.69783 -9.43532,-0.71077 l -21.18237,-15.73595 c -1.10532,-0.82112 -1.78552,-2.14666 -2.02253,-3.59869 -0.66148,-4.05257 -0.70485,-7.87951 0.0762,-11.01303 0.39424,-1.58166 1.9655,-4.1936 3.59048,-4.92018 23.15926,-10.3553 71.60242,-31.77291 94.04848,-44.73215 8.53162,-4.92573 6.30346,-14.43364 -1.07142,-14.43364 -23.49463,0 -82.77883,-29.36142 -112.1212,-55.48342 -33.77544,-30.06854 -53.10968,-63.05382 -53.10968,-96.78295 0,-14.96754 11.69714,-29.37144 25.46547,-29.37142 L 552,673.79118 z M 358.79578,193.22745 c 1.87979,-1.22031 4.04347,-1.04981 5.8765,0.10879 27.86455,17.6123 65.0899,39.23487 101.58436,59.47968 12.49931,6.93382 44.02361,32.43625 63.49438,64.25616 18.5135,30.25549 28.2437,60.93248 29.05495,82.73156 1.18292,31.78594 1.55552,54.22357 1.2003,83.27893 -0.57648,47.15386 -1.97516,107.32999 -3.90307,151.07961 -0.59807,13.57199 -10.44826,22.23036 -20.42613,22.23036 l -347.01278,0 c -11.38096,0 -19.5902,-12.24094 -20.02929,-22.23036 -1.70556,-38.80174 -3.35569,-66.16048 -4.06936,-89.30785 -1.36397,-44.23929 -2.03755,-84.94428 -1.33898,-132.82734 0.459,-31.46218 14.70976,-76.77345 38.82588,-109.49386 15.13166,-20.53041 41.87132,-43.13329 71.50702,-59.22449 32.55466,-17.67611 64.70792,-36.75485 85.23622,-50.08119 z m -222.4861,-133.845221 469.72094,0 c 22.38498,0 40.4061,18.021121 40.4061,40.406101 l 0,862.67028 c 0,22.38498 -18.02112,40.40609 -40.4061,40.40609 l -469.72094,0 c -22.38498,0 -40.4061,-18.02111 -40.4061,-40.40609 l 0,-862.67028 c 0,-22.38498 18.02112,-40.406101 40.4061,-40.406101 z"
    id="path3624"
    style="color:#000000;fill:#000000;fill-opacity:1;fill-rule:evenodd;stroke:none;stroke-width:1;marker:none;visibility:visible;display:inline;overflow:visible;enable-background:accumulate" />
 </g>
</svg>
